<svg height="446pt" viewBox="-22 0 446 446.52293" width="446pt" xmlns="http://www.w3.org/2000/svg"><path fill="#ff8e48" d="m376.550781 250.855469c16.339844-18.042969 25.492188-41.457031 25.714844-65.796875.21875-40.445313-23.753906-77.105469-60.890625-93.128906-1.011719-18.386719-10.628906-35.222657-25.957031-45.433594-15.328125-10.207032-34.574219-12.59375-51.929688-6.441406-29.464843-35.503907-77.847656-49.042969-121.460937-33.988282-43.613282 15.058594-73.335938 55.558594-74.621094 101.679688-38.460938 10.066406-65.746094 44.199218-67.089844 83.933594-.847656 24.1875 8.242188 47.667968 25.160156 64.976562 16.53125 16.996094 38.976563 26.972656 62.667969 27.859375-3.035156 4.898437-4.652343 10.542969-4.664062 16.308594v34.421875c-3.707031 1.253906-7.078125 3.351562-9.84375 6.121094-8.402344 8.386718-9.941407 21.449218-3.722657 31.558593 6.222657 10.109375 18.574219 14.625 29.847657 10.902344 11.273437-3.71875 18.515625-14.699219 17.496093-26.527344-1.019531-11.828125-10.03125-21.40625-21.773437-23.140625v-33.335937c.019531-7.996094 4.992187-15.140625 12.480469-17.9375l35.046875-12.984375c12.1875-4.550782 20.28125-16.179688 20.316406-29.191406v-32.65625c0-3.3125-2.683594-6-6-6-3.3125 0-6 2.6875-6 6v32.65625c-.019531 7.996093-4.992187 15.144531-12.484375 17.941406l-35.046875 12.980468c-.773437.285157-1.535156.605469-2.277344.949219h-10.085937c-21.625.089844-42.34375-8.679687-57.332032-24.269531-14.648437-14.976562-22.519531-35.300781-21.792968-56.234375 1.222656-36.003906 26.972656-66.472656 62.265625-73.679687 2.878906-.585938 4.910156-3.164063 4.800781-6.101563-.015625-.480469-.015625-.960937-.015625-1.453125-.007813-42.402344 27.035156-80.085938 67.210937-93.652344 40.175782-13.566406 84.527344.007813 110.226563 33.734375 1.691406 2.21875 4.6875 2.980469 7.234375 1.835938 14.363281-6.441407 31.011719-5.167969 44.226562 3.386719 13.21875 8.554687 21.199219 23.222656 21.199219 38.964843 0 .230469 0 .464844-.003906.695313-.085937 2.5625 1.464844 4.894531 3.863281 5.804687 34.472656 13.234375 57.148438 46.425781 56.949219 83.347657-.347656 43-32.855469 79.9375-75.851563 86.550781l-34.726562-12.859375c-7.488281-2.796875-12.460938-9.945313-12.484375-17.941406v-32.65625c0-3.3125-2.683594-6-6-6-3.3125 0-6 2.6875-6 6v32.65625c.035156 13.011718 8.128906 24.640624 20.316406 29.195312l35.046875 12.976562c7.488282 2.800782 12.460938 9.945313 12.484375 17.941407v33.335937c-11.722656 1.742188-20.714843 11.308594-21.730469 23.117188-1.011718 11.8125 6.21875 22.769531 17.476563 26.484375 11.253906 3.714843 23.585937-.789063 29.800781-10.882813s4.683594-23.132812-3.699218-31.511718c-2.769532-2.769532-6.136719-4.867188-9.847657-6.121094v-34.421875c-.015625-7.277344-2.578125-14.320313-7.242187-19.90625 18.777344-5.179688 35.6875-15.609375 48.742187-30.0625zm-275.203125 118.222656c-5.308594 5.308594-13.917968 5.308594-19.226562 0s-5.308594-13.914063 0-19.222656c1.410156-1.40625 3.109375-2.480469 4.980468-3.152344 1.996094.867187 4.304688.578125 6.027344-.75 5.21875.535156 9.664063 4.023437 11.417969 8.964844 1.757813 4.941406.511719 10.453125-3.199219 14.160156zm235.0625 0c-4.226562 4.234375-10.722656 5.210937-16.007812 2.402344-5.28125-2.8125-8.105469-8.746094-6.957032-14.617188 1.152344-5.871093 6.007813-10.300781 11.957032-10.910156 1.722656 1.328125 4.03125 1.617187 6.027344.75 4.375 1.574219 7.640624 5.277344 8.652343 9.816406 1.007813 4.539063-.375 9.277344-3.671875 12.558594zm0 0"/><path fill="#ff8e48" d="m209.265625 352.472656c12.957031-.015625 23.859375-9.710937 25.386719-22.578125 1.53125-12.867187-6.792969-24.847656-19.386719-27.902343v-203.9375c0-3.3125-2.6875-6-6-6s-6 2.6875-6 6v203.9375c-12.59375 3.054687-20.917969 15.035156-19.386719 27.902343 1.527344 12.867188 12.429688 22.5625 25.386719 22.578125zm-9.609375-35.199218c2.457031-2.46875 5.78125-3.890626 9.265625-3.964844.113281.003906.226563.015625.34375.015625s.230469-.011719.34375-.015625c3.488281.074218 6.808594 1.496094 9.265625 3.964844 5.308594 5.308593 5.3125 13.914062.003906 19.222656s-13.917968 5.308594-19.226562 0-5.308594-13.914063 0-19.222656zm0 0"/><path fill="#ff8e48" d="m256.246094 439.035156c7.664062 7.65625 19.320312 9.660156 29.101562 4.996094 9.78125-4.660156 15.566406-14.980469 14.441406-25.753906-1.125-10.777344-8.910156-19.679688-19.445312-22.222656v-86.441407c-.015625-14.332031-11.628906-25.941406-25.957031-25.957031-7.703125-.007812-13.945313-6.253906-13.953125-13.957031v-121.644531c0-3.3125-2.6875-6-6-6-3.316406 0-6 2.6875-6 6v121.644531c.015625 14.328125 11.625 25.941406 25.953125 25.957031 7.707031.007812 13.949219 6.25 13.957031 13.957031v86.441407c-9 2.171874-16.125 9.035156-18.632812 17.945312-2.511719 8.914062-.011719 18.484375 6.535156 25.035156zm8.484375-27.710937c2.460937-2.46875 5.78125-3.886719 9.265625-3.960938.117187.003907.230468.015625.34375.015625.117187 0 .230468-.011718.347656-.015625 6.441406.171875 11.878906 4.847657 13.007812 11.195313 1.128907 6.347656-2.359374 12.613281-8.347656 14.996094-5.992187 2.386718-12.832031.230468-16.371094-5.15625-3.542968-5.386719-2.808593-12.519532 1.753907-17.074219zm0 0"/><path fill="#ff8e48" d="m164.148438 295.65625c14.328124-.015625 25.9375-11.628906 25.953124-25.957031v-121.644531c0-3.3125-2.683593-6-6-6-3.3125 0-6 2.6875-6 6v121.644531c-.007812 7.703125-6.25 13.949219-13.953124 13.957031-14.332032.015625-25.941407 11.625-25.957032 25.957031v86.441407c-12.597656 3.039062-20.929687 15.015624-19.398437 27.882812s12.441406 22.554688 25.398437 22.554688c12.957032 0 23.867188-9.6875 25.394532-22.554688 1.53125-12.867188-6.800782-24.84375-19.394532-27.882812v-86.441407c.007813-7.707031 6.25-13.949219 13.957032-13.957031zm-10.347657 115.667969c4.585938 4.566406 5.328125 11.726562 1.777344 17.136719-3.550781 5.410156-10.417969 7.574218-16.429687 5.179687-6.011719-2.394531-9.507813-8.683594-8.371094-15.054687 1.136718-6.371094 6.597656-11.058594 13.066406-11.222657.117188.003907.230469.015625.347656.015625.113282 0 .226563-.011718.34375-.015625 3.484375.074219 6.804688 1.492188 9.265625 3.960938zm0 0"/></svg>