<svg height="512pt" viewBox="0 -45 512 512" width="512pt" xmlns="http://www.w3.org/2000/svg"><path fill="#bbbbbb" d="m501.960938 0h-491.921876c-5.542968 0-10.039062 4.496094-10.039062 10.039062v401.839844c0 5.542969 4.496094 10.039063 10.039062 10.039063h376.6875c5.542969 0 10.039063-4.496094 10.039063-10.039063 0-5.542968-4.496094-10.039062-10.039063-10.039062h-366.648437v-289.546875h471.84375v289.546875h-24.832031c-5.542969 0-10.039063 4.496094-10.039063 10.039062 0 5.542969 4.496094 10.039063 10.039063 10.039063h34.871094c5.542968 0 10.039062-4.496094 10.039062-10.039063v-401.839844c0-5.542968-4.496094-10.039062-10.039062-10.039062zm-481.882813 92.214844v-72.136719h471.84375v72.136719zm0 0"/><path fill="#bbbbbb" d="m93.433594 52.308594c-1.652344-4.003906-5.847656-6.554688-10.164063-6.160156-4.078125.371093-7.585937 3.265624-8.738281 7.191406-1.175781 4.03125.375 8.523437 3.792969 10.964844 3.34375 2.390624 7.914062 2.476562 11.351562.226562 3.980469-2.601562 5.574219-7.828125 3.757813-12.222656zm0 0"/><path fill="#bbbbbb" d="m53.175781 52.308594c-1.628906-3.945313-5.722656-6.484375-9.976562-6.171875-4.15625.300781-7.753907 3.210937-8.921875 7.203125-1.148438 3.917968.28125 8.285156 3.523437 10.769531 3.375 2.582031 8.144531 2.742187 11.683594.382813 3.929687-2.617188 5.496094-7.820313 3.691406-12.183594zm0 0"/><path fill="#bbbbbb" d="m134.273438 54.183594c-.835938-4.128906-4.238282-7.359375-8.410157-7.96875-4.191406-.613282-8.433593 1.578125-10.355469 5.34375-1.914062 3.742187-1.273437 8.367187 1.59375 11.445312 2.824219 3.027344 7.351563 3.988282 11.171876 2.414063 4.347656-1.792969 6.9375-6.617188 6-11.234375zm0 0"/><path fill="#ff8e48" d="m302.410156 324.257812c1.921875 1.75 4.339844 2.613282 6.75 2.613282 2.730469 0 5.449219-1.105469 7.429688-3.28125l54.367187-59.769532c3.429688-3.769531 3.488281-9.515624.132813-13.355468l-52.191406-59.769532c-3.648438-4.175781-9.988282-4.605468-14.164063-.957031-4.175781 3.644531-4.605469 9.988281-.957031 14.164063l46.304687 53.027344-48.34375 53.148437c-3.730469 4.101563-3.433593 10.449219.671875 14.179687zm0 0"/><path fill="#ff8e48" d="m209.589844 189.871094c-4.097656-3.730469-10.449219-3.429688-14.179688.671875l-54.367187 59.769531c-3.429688 3.769531-3.488281 9.515625-.132813 13.359375l52.191406 59.765625c1.984376 2.273438 4.765626 3.433594 7.5625 3.433594 2.34375 0 4.699219-.8125 6.601563-2.476563 4.175781-3.648437 4.605469-9.988281.957031-14.164062l-46.304687-53.027344 48.34375-53.148437c3.730469-4.101563 3.433593-10.449219-.671875-14.183594zm0 0"/><path fill="#ff8e48" d="m266.917969 193.816406-44.1875 119.535156c-1.921875 5.203126.734375 10.976563 5.933593 12.898438 1.148438.425781 2.324219.625 3.480469.625 4.082031 0 7.921875-2.507812 9.417969-6.558594l44.191406-119.535156c1.921875-5.203125-.734375-10.976562-5.9375-12.898438-5.199218-1.921874-10.972656.734376-12.898437 5.933594zm0 0"/><path fill="#bbbbbb" d="m436.101562 407.964844c-1.628906-3.945313-5.71875-6.480469-9.984374-6.171875-4.226563.308593-7.871094 3.335937-8.976563 7.417969-1.082031 3.980468.488281 8.367187 3.851563 10.757812 3.402343 2.417969 8.023437 2.480469 11.484374.144531 3.902344-2.640625 5.417969-7.808593 3.625-12.148437zm0 0"/></svg>