<svg viewBox="0 0 512.00075 512" xmlns="http://www.w3.org/2000/svg"><path fill="#ff8e48" d="m264.457031 235.117188c-3.449219 3.453124-6.46875 7.308593-8.984375 11.488281l-28.269531 46.980469-20.972656 20.972656c-6.03125 6.03125-5.855469 15.910156.523437 21.714844 5.972656 5.4375 15.277344 4.910156 20.988282-.800782l20.671874-20.671875 46.984376-28.277343c4.175781-2.515626 8.035156-5.527344 11.484374-8.976563l16.019532-16.023437-42.429688-42.425782zm0 0"/><path fill="#ff8e48" d="m503.214844 81.214844c11.714844-11.714844 11.714844-30.710938 0-42.425782-11.71875-11.71875-30.710938-11.71875-42.429688 0l-21.210937 21.210938 42.425781 42.425781zm0 0"/><path fill="#ff8e48" d="m301.683594 197.886719 116.671875-116.671875 42.425781 42.425781-116.671875 116.671875zm0 0"/><path fill="#ff8e48" d="m91 90v-81.210938l-82.210938 81.210938zm0 0"/><path fill="#ff8e48" d="m60.738281 512c33.144531.140625 60.261719-27.796875 60.261719-60.941406v-44.058594c0-8.285156 6.710938-15 14.992188-15 59.242187 0 269.121093 0 256.007812 0v-157.15625c-7.144531 7.144531-66.921875 66.921875-63.910156 63.910156 0 0-13.011719 10.929688-17.199219 13.449219l-43.867187 26.40625-18.375 18.375c-15.6875 15.6875-41.175782 18.234375-59.960938 3.015625h-112.269531c-8.082031 0-15.03125-6.214844-15.402344-14.289062-.394531-8.617188 6.457031-15.710938 14.984375-15.710938h96.308594c-.171875-1.609375-.472656-3.191406-.472656-4.832031 0-9.105469 2.714843-17.789063 7.714843-25.167969h-103.132812c-8.082031 0-15.03125-6.214844-15.402344-14.289062-.394531-8.617188 6.457031-15.710938 14.984375-15.710938h130.382812l18.054688-30h-148.019531c-8.082031 0-15.03125-6.214844-15.402344-14.289062-.394531-8.617188 6.457031-15.710938 14.984375-15.710938h171.15625l30-30h-200.738281c-8.082031 0-15.03125-6.214844-15.402344-14.289062-.394531-8.617188 6.457031-15.710938 14.984375-15.710938h231.15625l30-30h-170.738281c-8.082031 0-15.03125-6.214844-15.402344-14.289062-.394531-8.617188 6.457031-15.710938 14.984375-15.710938h201.15625c3-3 27.84375-27.84375 24.84375-24.84375v-50.15625c0-8.285156-6.714844-15-15-15h-256v105c0 8.285156-6.714844 15-15 15h-106v332c0 33.050781 27.71875 59.859375 60.738281 60zm0 0"/><path fill="#ff8e48" d="m151 422v30c0 23.132812-9.015625 44.042969-23.40625 60h279.40625c24.851562 0 45-20.148438 45-45v-30c0-8.285156-6.714844-15-15-15zm0 0"/></svg>