<svg xmlns="http://www.w3.org/2000/svg" height="1171pt" version="1.1" viewBox="-19 0 1171 1171.25" width="1171pt">
<g id="surface1">
<path fill="#ff8e48" d="M 1112.8125 0 L 19.644531 0 C 8.859375 0 0.125 8.734375 0.125 19.519531 L 0.125 1151.730469 C 0.125 1162.515625 8.859375 1171.25 19.644531 1171.25 L 1112.8125 1171.25 C 1123.597656 1171.25 1132.332031 1162.515625 1132.332031 1151.730469 L 1132.332031 19.519531 C 1132.332031 8.734375 1123.597656 0 1112.8125 0 Z M 1093.292969 39.042969 L 1093.292969 117.125 L 39.167969 117.125 L 39.167969 39.042969 Z M 39.167969 1132.207031 L 39.167969 156.167969 L 1093.292969 156.167969 L 1093.292969 1132.207031 Z M 39.167969 1132.207031 " style=" stroke:none;fill-rule:nonzero;fill:rgb(0%,0%,0%);fill-opacity:1;" />
<path fill="#ff8e48" d="M 58.6875 58.5625 L 97.730469 58.5625 L 97.730469 97.605469 L 58.6875 97.605469 Z M 58.6875 58.5625 " style=" stroke:none;fill-rule:nonzero;fill:rgb(0%,0%,0%);fill-opacity:1;" />
<path fill="#ff8e48" d="M 117.25 58.5625 L 156.292969 58.5625 L 156.292969 97.605469 L 117.25 97.605469 Z M 117.25 58.5625 " style=" stroke:none;fill-rule:nonzero;fill:rgb(0%,0%,0%);fill-opacity:1;" />
<path fill="#ff8e48" d="M 175.8125 58.5625 L 214.855469 58.5625 L 214.855469 97.605469 L 175.8125 97.605469 Z M 175.8125 58.5625 " style=" stroke:none;fill-rule:nonzero;fill:rgb(0%,0%,0%);fill-opacity:1;" />
<path fill="#ff8e48" d="M 136.769531 741.792969 L 995.6875 741.792969 C 1006.472656 741.792969 1015.207031 733.054688 1015.207031 722.269531 L 1015.207031 566.105469 C 1015.207031 555.320312 1006.472656 546.582031 995.6875 546.582031 L 136.769531 546.582031 C 125.984375 546.582031 117.25 555.320312 117.25 566.105469 L 117.25 722.269531 C 117.25 733.054688 125.984375 741.792969 136.769531 741.792969 Z M 156.292969 585.625 L 976.167969 585.625 L 976.167969 702.75 L 156.292969 702.75 Z M 156.292969 585.625 " style=" stroke:none;fill-rule:nonzero;fill:rgb(0%,0%,0%);fill-opacity:1;" />
<path fill="#ff8e48" d="M 331.238281 448.980469 C 339.992188 449.636719 348.023438 444.089844 350.496094 435.644531 L 371.019531 374.0625 L 391.546875 435.625 C 394.207031 443.601562 401.667969 448.972656 410.0625 448.980469 L 410.804688 448.980469 C 419.472656 448.640625 426.890625 442.640625 429.003906 434.222656 L 468.042969 278.054688 L 430.164062 268.5625 L 407.367188 359.699219 L 389.535156 306.183594 C 386.886719 298.171875 379.414062 292.753906 370.980469 292.753906 C 362.546875 292.753906 355.074219 298.171875 352.425781 306.183594 L 334.589844 359.699219 L 311.878906 268.546875 L 273.996094 278.035156 L 313.039062 434.203125 C 315.140625 442.625 322.558594 448.640625 331.238281 448.980469 Z M 331.238281 448.980469 " style=" stroke:none;fill-rule:nonzero;fill:rgb(0%,0%,0%);fill-opacity:1;" />
<path fill="#ff8e48" d="M 526.445312 448.980469 C 535.199219 449.636719 543.234375 444.089844 545.703125 435.644531 L 566.230469 374.0625 L 586.753906 435.625 C 589.414062 443.601562 596.875 448.972656 605.269531 448.980469 L 606.011719 448.980469 C 614.679688 448.640625 622.097656 442.640625 624.210938 434.222656 L 663.253906 278.054688 L 625.371094 268.5625 L 602.578125 359.699219 L 584.746094 306.183594 C 582.09375 298.171875 574.625 292.753906 566.191406 292.753906 C 557.757812 292.753906 550.28125 298.171875 547.636719 306.183594 L 529.796875 359.699219 L 507.085938 268.546875 L 469.207031 278.035156 L 508.246094 434.203125 C 510.351562 442.625 517.769531 448.640625 526.445312 448.980469 Z M 526.445312 448.980469 " style=" stroke:none;fill-rule:nonzero;fill:rgb(0%,0%,0%);fill-opacity:1;" />
<path fill="#ff8e48" d="M 721.652344 448.980469 C 730.410156 449.636719 738.441406 444.089844 740.910156 435.644531 L 761.4375 374.0625 L 781.964844 435.625 C 784.625 443.601562 792.085938 448.972656 800.480469 448.980469 L 801.222656 448.980469 C 809.886719 448.640625 817.304688 442.640625 819.417969 434.222656 L 858.460938 278.054688 L 820.582031 268.5625 L 797.785156 359.699219 L 779.953125 306.183594 C 777.304688 298.171875 769.832031 292.753906 761.398438 292.753906 C 752.964844 292.753906 745.488281 298.171875 742.84375 306.183594 L 725.007812 359.699219 L 702.292969 268.546875 L 664.414062 278.035156 L 703.457031 434.203125 C 705.558594 442.625 712.976562 448.640625 721.652344 448.980469 Z M 721.652344 448.980469 " style=" stroke:none;fill-rule:nonzero;fill:rgb(0%,0%,0%);fill-opacity:1;" />
<path fill="#ff8e48" d="M 117.25 878.4375 L 312.457031 878.4375 L 312.457031 917.480469 L 117.25 917.480469 Z M 117.25 878.4375 " style=" stroke:none;fill-rule:nonzero;fill:rgb(0%,0%,0%);fill-opacity:1;" />
<path fill="#ff8e48" d="M 468.625 878.4375 L 663.832031 878.4375 L 663.832031 917.480469 L 468.625 917.480469 Z M 468.625 878.4375 " style=" stroke:none;fill-rule:nonzero;fill:rgb(0%,0%,0%);fill-opacity:1;" />
<path fill="#ff8e48" d="M 839.519531 878.4375 L 1034.730469 878.4375 L 1034.730469 917.480469 L 839.519531 917.480469 Z M 839.519531 878.4375 " style=" stroke:none;fill-rule:nonzero;fill:rgb(0%,0%,0%);fill-opacity:1;" />
</g>
</svg>